<?xml version="1.0" standalone="no"?>
<!DOCTYPE svg PUBLIC "-//W3C//DTD SVG 20010904//EN"
 "http://www.w3.org/TR/2001/REC-SVG-20010904/DTD/svg10.dtd">
<svg version="1.0" xmlns="http://www.w3.org/2000/svg"
 width="2400.000000pt" height="2400.000000pt" viewBox="0 0 2400.000000 2400.000000"
 preserveAspectRatio="xMidYMid meet">

<g transform="translate(0.000000,2400.000000) scale(0.100000,-0.100000)"
fill="#000000" stroke="none">
<path d="M8816 22953 c-3 -16 -73 -417 -156 -893 -82 -476 -153 -871 -157
-878 -5 -7 -73 -39 -153 -71 -1406 -565 -2693 -1481 -3709 -2640 -1224 -1397
-2038 -3147 -2315 -4976 -15 -93 -33 -192 -41 -220 -15 -55 -35 -224 -62 -535
-14 -164 -18 -311 -18 -740 0 -559 7 -694 56 -1115 11 -93 22 -195 25 -225 l6
-55 -168 -155 c-193 -176 -259 -238 -359 -330 -89 -83 -119 -112 -522 -484
-183 -168 -334 -310 -337 -315 -5 -7 696 -1224 2882 -5008 185 -321 341 -583
347 -583 6 0 85 27 176 61 90 33 286 105 434 159 149 54 419 153 600 220 493
182 502 185 525 169 10 -8 76 -59 147 -114 473 -372 1010 -710 1558 -983 1311
-653 2605 -994 4025 -1062 1343 -63 2760 170 4005 660 99 39 189 72 200 74 79
13 722 320 1030 492 344 192 759 462 1083 703 l203 151 52 -16 c29 -9 66 -20
82 -26 37 -12 488 -153 570 -178 228 -69 648 -200 675 -210 14 -5 72 -23 130
-40 58 -18 146 -45 195 -61 50 -16 95 -29 101 -29 6 0 74 109 151 243 77 133
679 1176 1338 2317 659 1141 1321 2288 1472 2549 150 261 272 478 271 481 -3
7 -201 174 -963 809 -220 184 -408 342 -419 351 -18 17 -17 23 8 206 91 672
112 1279 66 1974 -115 1741 -677 3394 -1642 4838 -859 1282 -2007 2345 -3353
3101 -321 181 -868 445 -1107 536 -26 9 -50 25 -52 34 -3 9 -96 419 -206 911
-111 492 -204 903 -206 913 -5 16 -168 17 -3234 17 l-3228 0 -6 -27z m5928
-510 c8 -27 234 -994 316 -1353 39 -173 75 -328 79 -345 7 -28 18 -34 197
-103 394 -152 864 -370 1189 -552 1303 -728 2383 -1722 3200 -2945 537 -803
951 -1695 1210 -2608 256 -905 367 -1771 352 -2752 -8 -527 -50 -946 -149
-1498 l-12 -67 44 -43 c25 -23 86 -76 135 -117 50 -41 95 -80 102 -86 6 -6 57
-49 114 -95 56 -46 191 -158 299 -249 108 -91 294 -246 413 -345 119 -99 216
-183 217 -186 0 -8 -2678 -4650 -2691 -4664 -10 -10 -42 -2 -244 59 -66 20
-158 48 -205 62 -47 14 -112 34 -145 44 -33 10 -116 35 -185 55 -69 20 -143
42 -165 50 -22 7 -80 25 -130 40 -49 15 -99 31 -110 35 -11 5 -40 14 -65 20
-25 6 -54 15 -65 20 -11 5 -51 18 -90 28 -38 11 -124 37 -190 57 -98 30 -124
34 -139 25 -10 -7 -87 -67 -170 -134 -236 -191 -696 -526 -724 -526 -5 0 -88
-49 -184 -110 -688 -430 -1451 -777 -2223 -1011 -671 -204 -1335 -324 -2090
-381 -223 -16 -967 -16 -1190 0 -1021 76 -1913 277 -2816 635 -797 315 -1610
780 -2267 1297 -74 58 -155 120 -180 138 -26 18 -87 67 -136 108 -99 85 -101
85 -213 44 -29 -11 -78 -29 -108 -40 -61 -22 -81 -29 -335 -124 -96 -35 -299
-110 -450 -165 -151 -55 -349 -127 -440 -160 -90 -34 -169 -61 -175 -61 -6 0
-159 258 -341 573 -182 314 -789 1365 -1349 2335 l-1018 1764 34 30 c19 17
108 101 199 187 91 85 194 183 230 216 36 34 108 102 160 152 52 49 124 116
160 149 68 61 147 134 210 194 21 19 95 89 165 155 71 66 134 125 140 132 9 9
8 36 -6 118 -94 541 -115 853 -113 1625 1 386 15 634 55 979 167 1466 680
2865 1504 4096 816 1221 1901 2220 3196 2943 395 221 945 469 1364 617 115 41
120 44 128 76 10 42 80 433 198 1114 50 286 93 530 96 543 l5 22 2698 0 c2562
0 2699 -1 2704 -17z"/>
<path d="M11640 19006 l0 -515 -42 -5 c-24 -2 -135 -14 -248 -25 -969 -98
-1944 -436 -2784 -968 -669 -423 -1249 -959 -1726 -1594 -621 -829 -1037
-1799 -1209 -2821 -66 -388 -85 -639 -85 -1078 0 -354 6 -469 40 -768 79 -691
303 -1455 608 -2071 31 -62 56 -116 56 -121 0 -4 -186 -114 -412 -245 -227
-131 -455 -262 -506 -292 l-93 -55 38 -67 c119 -212 359 -621 364 -621 4 0
233 130 509 290 276 160 505 290 510 290 4 0 49 -58 99 -129 402 -564 931
-1092 1509 -1504 1403 -1000 3150 -1402 4848 -1117 972 164 1895 546 2696
1117 586 418 1103 935 1522 1523 59 83 109 150 112 150 2 0 226 -128 497 -284
270 -157 499 -288 508 -291 12 -5 59 69 213 336 109 188 194 345 189 350 -4 4
-228 135 -498 290 -269 155 -494 286 -499 290 -6 5 22 74 66 166 243 508 430
1104 527 1685 66 388 85 639 85 1078 0 439 -19 690 -85 1078 -265 1576 -1102
3000 -2352 3999 -965 772 -2157 1262 -3367 1384 -113 11 -224 23 -247 25 l-43
5 0 515 0 514 -400 0 -400 0 0 -514z m0 -2876 l0 -1160 -456 0 c-264 0 -454
-4 -452 -9 11 -29 1324 -2571 1328 -2571 4 0 1318 2542 1328 2571 2 5 -193 9
-472 9 l-476 0 0 1160 0 1160 45 0 c24 0 115 -9 202 -20 1032 -131 1967 -538
2778 -1211 153 -126 546 -526 678 -688 195 -241 376 -505 525 -767 80 -141
244 -483 306 -641 538 -1358 496 -2870 -116 -4195 -23 -49 -45 -88 -50 -88
-12 0 -1848 1058 -1867 1076 -12 10 21 74 207 396 122 211 222 387 222 393 0
11 4 10 -235 19 -99 4 -187 9 -195 11 -8 2 -96 6 -195 10 -99 3 -200 8 -225
10 -25 2 -119 6 -210 10 -91 4 -176 8 -190 10 -14 2 -108 7 -210 10 -102 4
-205 8 -230 10 -25 1 -117 6 -205 10 -88 4 -176 8 -195 10 -19 2 -119 6 -221
10 -102 4 -201 9 -220 10 -98 9 -359 17 -359 11 0 -4 208 -330 461 -724 254
-394 606 -941 782 -1215 253 -393 323 -495 332 -485 7 7 115 192 240 410 l229
398 30 -18 c17 -10 439 -254 939 -542 499 -288 907 -528 907 -533 0 -15 -148
-213 -269 -362 -123 -151 -521 -554 -666 -674 -812 -673 -1755 -1084 -2780
-1211 -648 -80 -1291 -40 -1936 121 -779 194 -1498 562 -2134 1090 -142 118
-523 501 -645 649 -114 137 -274 349 -269 355 2 1 411 238 909 525 498 287
919 531 937 541 l31 19 218 -377 c120 -208 223 -386 230 -396 11 -16 19 -8 73
80 34 54 151 235 259 404 108 168 220 341 248 385 118 183 440 684 479 744 23
36 124 193 225 350 101 157 207 322 236 367 30 46 54 88 54 94 0 7 -24 9 -77
5 -43 -3 -134 -8 -203 -11 -124 -5 -245 -11 -410 -20 -47 -3 -148 -7 -225 -10
-77 -3 -169 -7 -205 -10 -36 -2 -123 -7 -195 -10 -71 -3 -168 -7 -215 -10 -47
-2 -137 -7 -200 -10 -63 -3 -209 -10 -325 -15 -115 -6 -257 -12 -315 -15 -58
-3 -148 -7 -200 -10 -238 -12 -320 -18 -320 -24 0 -3 105 -189 234 -411 l234
-405 -27 -17 c-80 -50 -1852 -1068 -1859 -1068 -5 0 -32 48 -60 108 -620 1317
-666 2850 -126 4215 62 158 226 500 306 641 149 262 330 526 525 767 132 162
525 562 678 688 807 669 1734 1075 2765 1210 80 11 171 20 203 20 l57 1 0
-1160z"/>
</g>
</svg>
